<svg xmlns="http://www.w3.org/2000/svg" xmlns:xlink="http://www.w3.org/1999/xlink" width="620pt" height="357pt" viewBox="0.00 0.00 620.00 357.00">
<g id="graph0" class="graph" transform="scale(1 1) rotate(0) translate(4 353.4)">
<title>aplicarDescontoFidelidadeFrete</title>
<polygon fill="white" stroke="none" points="-4,4 -4,-353.4 616.04,-353.4 616.04,4 -4,4"/>
<!-- N1 -->
<g id="node1" class="node">
<title>N1</title>
<path fill="none" stroke="black" d="M420.3,-349.4C420.3,-349.4 206.33,-349.4 206.33,-349.4 200.33,-349.4 194.33,-343.4 194.33,-337.4 194.33,-337.4 194.33,-325.4 194.33,-325.4 194.33,-319.4 200.33,-313.4 206.33,-313.4 206.33,-313.4 420.3,-313.4 420.3,-313.4 426.3,-313.4 432.3,-319.4 432.3,-325.4 432.3,-325.4 432.3,-337.4 432.3,-337.4 432.3,-343.4 426.3,-349.4 420.3,-349.4"/>
<text xml:space="preserve" text-anchor="middle" x="313.31" y="-327.2" font-family="Times,serif" font-size="14.00">Início: aplicarDescontoFidelidadeFrete</text>
</g>
<!-- N2 -->
<g id="node2" class="node">
<title>N2</title>
<path fill="none" stroke="black" d="M365.11,-276.4C365.11,-276.4 261.52,-276.4 261.52,-276.4 255.52,-276.4 249.52,-270.4 249.52,-264.4 249.52,-264.4 249.52,-252.4 249.52,-252.4 249.52,-246.4 255.52,-240.4 261.52,-240.4 261.52,-240.4 365.11,-240.4 365.11,-240.4 371.11,-240.4 377.11,-246.4 377.11,-252.4 377.11,-252.4 377.11,-264.4 377.11,-264.4 377.11,-270.4 371.11,-276.4 365.11,-276.4"/>
<text xml:space="preserve" text-anchor="middle" x="313.31" y="-254.2" font-family="Times,serif" font-size="14.00">switch (tipoCliente)</text>
</g>
<!-- N1&#45;&gt;N2 -->
<g id="edge1" class="edge">
<title>N1-&gt;N2</title>
<path fill="none" stroke="black" d="M313.31,-313.21C313.31,-305.63 313.31,-296.5 313.31,-287.94"/>
<polygon fill="black" stroke="black" points="316.81,-287.94 313.31,-277.94 309.81,-287.94 316.81,-287.94"/>
</g>
<!-- N3 -->
<g id="node3" class="node">
<title>N3</title>
<path fill="none" stroke="black" d="M205.89,-184.8C205.89,-184.8 142.74,-184.8 142.74,-184.8 136.74,-184.8 130.74,-178.8 130.74,-172.8 130.74,-172.8 130.74,-160.8 130.74,-160.8 130.74,-154.8 136.74,-148.8 142.74,-148.8 142.74,-148.8 205.89,-148.8 205.89,-148.8 211.89,-148.8 217.89,-154.8 217.89,-160.8 217.89,-160.8 217.89,-172.8 217.89,-172.8 217.89,-178.8 211.89,-184.8 205.89,-184.8"/>
<text xml:space="preserve" text-anchor="middle" x="174.31" y="-162.6" font-family="Times,serif" font-size="14.00">case OURO:</text>
</g>
<!-- N2&#45;&gt;N3 -->
<g id="edge2" class="edge">
<title>N2-&gt;N3</title>
<path fill="none" stroke="black" d="M286.18,-239.91C264.75,-226.1 234.63,-206.68 211.04,-191.47"/>
<polygon fill="black" stroke="black" points="212.95,-188.54 202.65,-186.06 209.16,-194.42 212.95,-188.54"/>
<text xml:space="preserve" text-anchor="middle" x="276.1" y="-209.8" font-family="Times,serif" font-size="14.00">OURO</text>
</g>
<!-- N5 -->
<g id="node5" class="node">
<title>N5</title>
<path fill="none" stroke="black" d="M348,-184.8C348,-184.8 278.63,-184.8 278.63,-184.8 272.63,-184.8 266.63,-178.8 266.63,-172.8 266.63,-172.8 266.63,-160.8 266.63,-160.8 266.63,-154.8 272.63,-148.8 278.63,-148.8 278.63,-148.8 348,-148.8 348,-148.8 354,-148.8 360,-154.8 360,-160.8 360,-160.8 360,-172.8 360,-172.8 360,-178.8 354,-184.8 348,-184.8"/>
<text xml:space="preserve" text-anchor="middle" x="313.31" y="-162.6" font-family="Times,serif" font-size="14.00">case PRATA:</text>
</g>
<!-- N2&#45;&gt;N5 -->
<g id="edge3" class="edge">
<title>N2-&gt;N5</title>
<path fill="none" stroke="black" d="M313.31,-240.12C313.31,-227.73 313.31,-210.74 313.31,-196.35"/>
<polygon fill="black" stroke="black" points="316.81,-196.54 313.31,-186.54 309.81,-196.54 316.81,-196.54"/>
<text xml:space="preserve" text-anchor="middle" x="336.26" y="-209.8" font-family="Times,serif" font-size="14.00">PRATA</text>
</g>
<!-- N7 -->
<g id="node7" class="node">
<title>N7</title>
<path fill="none" stroke="black" d="M524.05,-187.6C524.05,-187.6 444.57,-187.6 444.57,-187.6 438.57,-187.6 432.57,-181.6 432.57,-175.6 432.57,-175.6 432.57,-158 432.57,-158 432.57,-152 438.57,-146 444.57,-146 444.57,-146 524.05,-146 524.05,-146 530.05,-146 536.05,-152 536.05,-158 536.05,-158 536.05,-175.6 536.05,-175.6 536.05,-181.6 530.05,-187.6 524.05,-187.6"/>
<text xml:space="preserve" text-anchor="middle" x="484.31" y="-171" font-family="Times,serif" font-size="14.00">case BRONZE:</text>
<text xml:space="preserve" text-anchor="middle" x="484.31" y="-154.2" font-family="Times,serif" font-size="14.00">default:</text>
</g>
<!-- N2&#45;&gt;N7 -->
<g id="edge4" class="edge">
<title>N2-&gt;N7</title>
<path fill="none" stroke="black" d="M346.69,-239.91C371.97,-226.67 407.07,-208.27 435.5,-193.38"/>
<polygon fill="black" stroke="black" points="437.07,-196.51 444.3,-188.77 433.82,-190.31 437.07,-196.51"/>
<text xml:space="preserve" text-anchor="middle" x="470.88" y="-209.8" font-family="Times,serif" font-size="14.00">BRONZE/DEFAULT</text>
</g>
<!-- N4 -->
<g id="node4" class="node">
<title>N4</title>
<path fill="none" stroke="black" d="M148.63,-109C148.63,-109 12,-109 12,-109 6,-109 0,-103 0,-97 0,-97 0,-85 0,-85 0,-79 6,-73 12,-73 12,-73 148.63,-73 148.63,-73 154.63,-73 160.63,-79 160.63,-85 160.63,-85 160.63,-97 160.63,-97 160.63,-103 154.63,-109 148.63,-109"/>
<text xml:space="preserve" text-anchor="middle" x="80.31" y="-86.8" font-family="Times,serif" font-size="14.00">return BigDecimal.ZERO</text>
</g>
<!-- N3&#45;&gt;N4 -->
<g id="edge5" class="edge">
<title>N3-&gt;N4</title>
<path fill="none" stroke="black" d="M152.04,-148.31C139.86,-138.75 124.59,-126.76 111.28,-116.31"/>
<polygon fill="black" stroke="black" points="113.65,-113.72 103.62,-110.3 109.33,-119.23 113.65,-113.72"/>
</g>
<!-- N_FIM -->
<g id="node9" class="node">
<title>N_FIM</title>
<ellipse fill="none" stroke="black" cx="313.31" cy="-18" rx="27" ry="18"/>
<text xml:space="preserve" text-anchor="middle" x="313.31" y="-13.8" font-family="Times,serif" font-size="14.00">Fim</text>
</g>
<!-- N4&#45;&gt;N_FIM -->
<g id="edge8" class="edge">
<title>N4-&gt;N_FIM</title>
<path fill="none" stroke="black" d="M137.61,-72.54C181.57,-59.14 240.85,-41.08 278.07,-29.74"/>
<polygon fill="black" stroke="black" points="278.88,-33.15 287.43,-26.89 276.84,-26.45 278.88,-33.15"/>
</g>
<!-- N6 -->
<g id="node6" class="node">
<title>N6</title>
<path fill="none" stroke="black" d="M436.27,-109C436.27,-109 190.36,-109 190.36,-109 184.36,-109 178.36,-103 178.36,-97 178.36,-97 178.36,-85 178.36,-85 178.36,-79 184.36,-73 190.36,-73 190.36,-73 436.27,-73 436.27,-73 442.27,-73 448.27,-79 448.27,-85 448.27,-85 448.27,-97 448.27,-97 448.27,-103 442.27,-109 436.27,-109"/>
<text xml:space="preserve" text-anchor="middle" x="313.31" y="-86.8" font-family="Times,serif" font-size="14.00">return frete * DESCONTO_FRETE_PRATA</text>
</g>
<!-- N5&#45;&gt;N6 -->
<g id="edge6" class="edge">
<title>N5-&gt;N6</title>
<path fill="none" stroke="black" d="M313.31,-148.31C313.31,-140.04 313.31,-129.95 313.31,-120.6"/>
<polygon fill="black" stroke="black" points="316.81,-120.88 313.31,-110.88 309.81,-120.88 316.81,-120.88"/>
</g>
<!-- N6&#45;&gt;N_FIM -->
<g id="edge9" class="edge">
<title>N6-&gt;N_FIM</title>
<path fill="none" stroke="black" d="M313.31,-72.81C313.31,-65.23 313.31,-56.1 313.31,-47.54"/>
<polygon fill="black" stroke="black" points="316.81,-47.54 313.31,-37.54 309.81,-47.54 316.81,-47.54"/>
</g>
<!-- N8 -->
<g id="node8" class="node">
<title>N8</title>
<path fill="none" stroke="black" d="M600.04,-109C600.04,-109 478.59,-109 478.59,-109 472.59,-109 466.59,-103 466.59,-97 466.59,-97 466.59,-85 466.59,-85 466.59,-79 472.59,-73 478.59,-73 478.59,-73 600.04,-73 600.04,-73 606.04,-73 612.04,-79 612.04,-85 612.04,-85 612.04,-97 612.04,-97 612.04,-103 606.04,-109 600.04,-109"/>
<text xml:space="preserve" text-anchor="middle" x="539.31" y="-86.8" font-family="Times,serif" font-size="14.00">return freteComRegiao</text>
</g>
<!-- N7&#45;&gt;N8 -->
<g id="edge7" class="edge">
<title>N7-&gt;N8</title>
<path fill="none" stroke="black" d="M499.34,-145.63C505.67,-137.15 513.11,-127.16 519.85,-118.12"/>
<polygon fill="black" stroke="black" points="522.47,-120.46 525.64,-110.35 516.85,-116.28 522.47,-120.46"/>
</g>
<!-- N8&#45;&gt;N_FIM -->
<g id="edge10" class="edge">
<title>N8-&gt;N_FIM</title>
<path fill="none" stroke="black" d="M483.74,-72.54C441.52,-59.28 384.73,-41.44 348.57,-30.08"/>
<polygon fill="black" stroke="black" points="349.63,-26.74 339.04,-27.08 347.53,-33.42 349.63,-26.74"/>
</g>
</g>
</svg>