<svg xmlns="http://www.w3.org/2000/svg" xmlns:xlink="http://www.w3.org/1999/xlink" width="411pt" height="735pt" viewBox="0.00 0.00 411.00 735.00">
<g id="graph0" class="graph" transform="scale(1 1) rotate(0) translate(4 731.2)">
<title>calcularFreteBasePorPeso</title>
<polygon fill="white" stroke="none" points="-4,4 -4,-731.2 407.01,-731.2 407.01,4 -4,4"/>
<!-- N1 -->
<g id="node1" class="node">
<title>N1</title>
<path fill="none" stroke="black" d="M242.17,-727.2C242.17,-727.2 60.84,-727.2 60.84,-727.2 54.84,-727.2 48.84,-721.2 48.84,-715.2 48.84,-715.2 48.84,-697.6 48.84,-697.6 48.84,-691.6 54.84,-685.6 60.84,-685.6 60.84,-685.6 242.17,-685.6 242.17,-685.6 248.17,-685.6 254.17,-691.6 254.17,-697.6 254.17,-697.6 254.17,-715.2 254.17,-715.2 254.17,-721.2 248.17,-727.2 242.17,-727.2"/>
<text xml:space="preserve" text-anchor="middle" x="151.5" y="-710.6" font-family="Times,serif" font-size="14.00">Início: calcularFreteBasePorPeso</text>
<text xml:space="preserve" text-anchor="middle" x="151.5" y="-693.8" font-family="Times,serif" font-size="14.00">freteBase = 0</text>
</g>
<!-- N2 -->
<g id="node2" class="node">
<title>N2</title>
<path fill="none" stroke="black" d="M190.72,-648.6C190.72,-648.6 112.28,-648.6 112.28,-648.6 106.28,-648.6 100.28,-642.6 100.28,-636.6 100.28,-636.6 100.28,-624.6 100.28,-624.6 100.28,-618.6 106.28,-612.6 112.28,-612.6 112.28,-612.6 190.72,-612.6 190.72,-612.6 196.72,-612.6 202.72,-618.6 202.72,-624.6 202.72,-624.6 202.72,-636.6 202.72,-636.6 202.72,-642.6 196.72,-648.6 190.72,-648.6"/>
<text xml:space="preserve" text-anchor="middle" x="151.5" y="-626.4" font-family="Times,serif" font-size="14.00">if (peso &gt; 50.0)</text>
</g>
<!-- N1&#45;&gt;N2 -->
<g id="edge1" class="edge">
<title>N1-&gt;N2</title>
<path fill="none" stroke="black" d="M151.5,-685.23C151.5,-677.46 151.5,-668.43 151.5,-660.02"/>
<polygon fill="black" stroke="black" points="155,-660.25 151.5,-650.25 148,-660.25 155,-660.25"/>
</g>
<!-- N3 -->
<g id="node3" class="node">
<title>N3</title>
<path fill="none" stroke="black" d="M167.46,-505.8C167.46,-505.8 43.54,-505.8 43.54,-505.8 37.54,-505.8 31.54,-499.8 31.54,-493.8 31.54,-493.8 31.54,-481.8 31.54,-481.8 31.54,-475.8 37.54,-469.8 43.54,-469.8 43.54,-469.8 167.46,-469.8 167.46,-469.8 173.46,-469.8 179.46,-475.8 179.46,-481.8 179.46,-481.8 179.46,-493.8 179.46,-493.8 179.46,-499.8 173.46,-505.8 167.46,-505.8"/>
<text xml:space="preserve" text-anchor="middle" x="105.5" y="-483.6" font-family="Times,serif" font-size="14.00">freteBase = peso * 7.00</text>
</g>
<!-- N2&#45;&gt;N3 -->
<g id="edge2" class="edge">
<title>N2-&gt;N3</title>
<path fill="none" stroke="black" d="M122.88,-612.13C117.14,-607.21 111.85,-601.33 108.54,-594.6 96.68,-570.54 97.36,-539.52 100.13,-517.3"/>
<polygon fill="black" stroke="black" points="103.58,-517.86 101.6,-507.46 96.66,-516.83 103.58,-517.86"/>
<text xml:space="preserve" text-anchor="middle" x="140.02" y="-582" font-family="Times,serif" font-size="14.00">Verdadeiro</text>
</g>
<!-- N4 -->
<g id="node4" class="node">
<title>N4</title>
<path fill="none" stroke="black" d="M254.35,-559.8C254.35,-559.8 150.65,-559.8 150.65,-559.8 144.65,-559.8 138.65,-553.8 138.65,-547.8 138.65,-547.8 138.65,-535.8 138.65,-535.8 138.65,-529.8 144.65,-523.8 150.65,-523.8 150.65,-523.8 254.35,-523.8 254.35,-523.8 260.35,-523.8 266.35,-529.8 266.35,-535.8 266.35,-535.8 266.35,-547.8 266.35,-547.8 266.35,-553.8 260.35,-559.8 254.35,-559.8"/>
<text xml:space="preserve" text-anchor="middle" x="202.5" y="-537.6" font-family="Times,serif" font-size="14.00">else if (peso &gt; 10.0)</text>
</g>
<!-- N2&#45;&gt;N4 -->
<g id="edge3" class="edge">
<title>N2-&gt;N4</title>
<path fill="none" stroke="black" d="M163.89,-612.42C167.75,-606.83 171.94,-600.54 175.5,-594.6 180.22,-586.74 184.97,-577.97 189.15,-569.92"/>
<polygon fill="black" stroke="black" points="192.15,-571.73 193.56,-561.23 185.91,-568.56 192.15,-571.73"/>
<text xml:space="preserve" text-anchor="middle" x="200.15" y="-582" font-family="Times,serif" font-size="14.00">Falso</text>
</g>
<!-- N8 -->
<g id="node8" class="node">
<title>N8</title>
<path fill="none" stroke="black" d="M247.59,-270.8C247.59,-270.8 163.42,-270.8 163.42,-270.8 157.42,-270.8 151.42,-264.8 151.42,-258.8 151.42,-258.8 151.42,-246.8 151.42,-246.8 151.42,-240.8 157.42,-234.8 163.42,-234.8 163.42,-234.8 247.59,-234.8 247.59,-234.8 253.59,-234.8 259.59,-240.8 259.59,-246.8 259.59,-246.8 259.59,-258.8 259.59,-258.8 259.59,-264.8 253.59,-270.8 247.59,-270.8"/>
<text xml:space="preserve" text-anchor="middle" x="205.5" y="-248.6" font-family="Times,serif" font-size="14.00">Junção (Pós-ifs)</text>
</g>
<!-- N3&#45;&gt;N8 -->
<g id="edge8" class="edge">
<title>N3-&gt;N8</title>
<path fill="none" stroke="black" d="M104.49,-469.48C103.67,-444.64 104.57,-397.92 119.5,-361.8 132.72,-329.82 158.38,-299.56 178.25,-279.25"/>
<polygon fill="black" stroke="black" points="180.66,-281.79 185.28,-272.25 175.73,-276.83 180.66,-281.79"/>
</g>
<!-- N5 -->
<g id="node5" class="node">
<title>N5</title>
<path fill="none" stroke="black" d="M256.46,-397.8C256.46,-397.8 132.54,-397.8 132.54,-397.8 126.54,-397.8 120.54,-391.8 120.54,-385.8 120.54,-385.8 120.54,-373.8 120.54,-373.8 120.54,-367.8 126.54,-361.8 132.54,-361.8 132.54,-361.8 256.46,-361.8 256.46,-361.8 262.46,-361.8 268.46,-367.8 268.46,-373.8 268.46,-373.8 268.46,-385.8 268.46,-385.8 268.46,-391.8 262.46,-397.8 256.46,-397.8"/>
<text xml:space="preserve" text-anchor="middle" x="194.5" y="-375.6" font-family="Times,serif" font-size="14.00">freteBase = peso * 4.00</text>
</g>
<!-- N4&#45;&gt;N5 -->
<g id="edge4" class="edge">
<title>N4-&gt;N5</title>
<path fill="none" stroke="black" d="M201.63,-523.37C200.26,-495.96 197.59,-442.49 195.93,-409.39"/>
<polygon fill="black" stroke="black" points="199.44,-409.53 195.45,-399.72 192.45,-409.88 199.44,-409.53"/>
<text xml:space="preserve" text-anchor="middle" x="232.11" y="-483.6" font-family="Times,serif" font-size="14.00">Verdadeiro</text>
</g>
<!-- N6 -->
<g id="node6" class="node">
<title>N6</title>
<path fill="none" stroke="black" d="M339.85,-451.8C339.85,-451.8 243.15,-451.8 243.15,-451.8 237.15,-451.8 231.15,-445.8 231.15,-439.8 231.15,-439.8 231.15,-427.8 231.15,-427.8 231.15,-421.8 237.15,-415.8 243.15,-415.8 243.15,-415.8 339.85,-415.8 339.85,-415.8 345.85,-415.8 351.85,-421.8 351.85,-427.8 351.85,-427.8 351.85,-439.8 351.85,-439.8 351.85,-445.8 345.85,-451.8 339.85,-451.8"/>
<text xml:space="preserve" text-anchor="middle" x="291.5" y="-429.6" font-family="Times,serif" font-size="14.00">else if (peso &gt; 5.0)</text>
</g>
<!-- N4&#45;&gt;N6 -->
<g id="edge5" class="edge">
<title>N4-&gt;N6</title>
<path fill="none" stroke="black" d="M246.81,-523.43C254.87,-518.69 262.58,-512.85 268.5,-505.8 278.59,-493.78 284.28,-477.25 287.48,-463.16"/>
<polygon fill="black" stroke="black" points="290.87,-464.02 289.33,-453.54 284,-462.69 290.87,-464.02"/>
<text xml:space="preserve" text-anchor="middle" x="300.98" y="-483.6" font-family="Times,serif" font-size="14.00">Falso</text>
</g>
<!-- N5&#45;&gt;N8 -->
<g id="edge9" class="edge">
<title>N5-&gt;N8</title>
<path fill="none" stroke="black" d="M193.31,-361.36C192.98,-355.76 192.66,-349.52 192.5,-343.8 192.04,-327.81 190.62,-323.69 192.5,-307.8 193.51,-299.34 195.37,-290.29 197.37,-282.06"/>
<polygon fill="black" stroke="black" points="200.7,-283.14 199.84,-272.58 193.93,-281.38 200.7,-283.14"/>
</g>
<!-- N7 -->
<g id="node7" class="node">
<title>N7</title>
<path fill="none" stroke="black" d="M337.46,-343.8C337.46,-343.8 213.54,-343.8 213.54,-343.8 207.54,-343.8 201.54,-337.8 201.54,-331.8 201.54,-331.8 201.54,-319.8 201.54,-319.8 201.54,-313.8 207.54,-307.8 213.54,-307.8 213.54,-307.8 337.46,-307.8 337.46,-307.8 343.46,-307.8 349.46,-313.8 349.46,-319.8 349.46,-319.8 349.46,-331.8 349.46,-331.8 349.46,-337.8 343.46,-343.8 337.46,-343.8"/>
<text xml:space="preserve" text-anchor="middle" x="275.5" y="-321.6" font-family="Times,serif" font-size="14.00">freteBase = peso * 2.00</text>
</g>
<!-- N6&#45;&gt;N7 -->
<g id="edge6" class="edge">
<title>N6-&gt;N7</title>
<path fill="none" stroke="black" d="M288.93,-415.77C286.47,-399.49 282.72,-374.62 279.81,-355.32"/>
<polygon fill="black" stroke="black" points="283.3,-355 278.34,-345.64 276.38,-356.05 283.3,-355"/>
<text xml:space="preserve" text-anchor="middle" x="317.35" y="-375.6" font-family="Times,serif" font-size="14.00">Verdadeiro</text>
</g>
<!-- N6&#45;&gt;N8 -->
<g id="edge7" class="edge">
<title>N6-&gt;N8</title>
<path fill="none" stroke="black" d="M334.2,-415.34C341.32,-410.64 347.88,-404.85 352.5,-397.8 374.48,-364.27 381.66,-340.53 358.5,-307.8 338.64,-279.72 302.91,-266.14 270.98,-259.62"/>
<polygon fill="black" stroke="black" points="271.83,-256.22 261.36,-257.87 270.57,-263.11 271.83,-256.22"/>
<text xml:space="preserve" text-anchor="middle" x="387.84" y="-321.6" font-family="Times,serif" font-size="14.00">Falso</text>
</g>
<!-- N7&#45;&gt;N8 -->
<g id="edge10" class="edge">
<title>N7-&gt;N8</title>
<path fill="none" stroke="black" d="M258.56,-307.61C250.04,-298.98 239.57,-288.36 230.18,-278.83"/>
<polygon fill="black" stroke="black" points="232.87,-276.57 223.35,-271.91 227.88,-281.48 232.87,-276.57"/>
</g>
<!-- N9 -->
<g id="node9" class="node">
<title>N9</title>
<path fill="none" stroke="black" d="M249.56,-197.8C249.56,-197.8 161.44,-197.8 161.44,-197.8 155.44,-197.8 149.44,-191.8 149.44,-185.8 149.44,-185.8 149.44,-173.8 149.44,-173.8 149.44,-167.8 155.44,-161.8 161.44,-161.8 161.44,-161.8 249.56,-161.8 249.56,-161.8 255.56,-161.8 261.56,-167.8 261.56,-173.8 261.56,-173.8 261.56,-185.8 261.56,-185.8 261.56,-191.8 255.56,-197.8 249.56,-197.8"/>
<text xml:space="preserve" text-anchor="middle" x="205.5" y="-175.6" font-family="Times,serif" font-size="14.00">if (freteBase &gt; 0)</text>
</g>
<!-- N8&#45;&gt;N9 -->
<g id="edge11" class="edge">
<title>N8-&gt;N9</title>
<path fill="none" stroke="black" d="M205.5,-234.61C205.5,-227.03 205.5,-217.9 205.5,-209.34"/>
<polygon fill="black" stroke="black" points="209,-209.34 205.5,-199.34 202,-209.34 209,-209.34"/>
</g>
<!-- N10 -->
<g id="node10" class="node">
<title>N10</title>
<path fill="none" stroke="black" d="M209,-109C209,-109 12,-109 12,-109 6,-109 0,-103 0,-97 0,-97 0,-85 0,-85 0,-79 6,-73 12,-73 12,-73 209,-73 209,-73 215,-73 221,-79 221,-85 221,-85 221,-97 221,-97 221,-103 215,-109 209,-109"/>
<text xml:space="preserve" text-anchor="middle" x="110.5" y="-86.8" font-family="Times,serif" font-size="14.00">return freteBase + TAXA_MINIMA</text>
</g>
<!-- N9&#45;&gt;N10 -->
<g id="edge12" class="edge">
<title>N9-&gt;N10</title>
<path fill="none" stroke="black" d="M186.73,-161.65C172.77,-148.89 153.51,-131.29 137.84,-116.97"/>
<polygon fill="black" stroke="black" points="140.42,-114.59 130.67,-110.43 135.7,-119.76 140.42,-114.59"/>
<text xml:space="preserve" text-anchor="middle" x="197.99" y="-131.2" font-family="Times,serif" font-size="14.00">Verdadeiro</text>
</g>
<!-- N11 -->
<g id="node11" class="node">
<title>N11</title>
<path fill="none" stroke="black" d="M352.31,-109C352.31,-109 250.7,-109 250.7,-109 244.7,-109 238.7,-103 238.7,-97 238.7,-97 238.7,-85 238.7,-85 238.7,-79 244.7,-73 250.7,-73 250.7,-73 352.31,-73 352.31,-73 358.31,-73 364.31,-79 364.31,-85 364.31,-85 364.31,-97 364.31,-97 364.31,-103 358.31,-109 352.31,-109"/>
<text xml:space="preserve" text-anchor="middle" x="301.5" y="-86.8" font-family="Times,serif" font-size="14.00">return freteBase (0)</text>
</g>
<!-- N9&#45;&gt;N11 -->
<g id="edge13" class="edge">
<title>N9-&gt;N11</title>
<path fill="none" stroke="black" d="M224.47,-161.65C238.58,-148.89 258.04,-131.29 273.88,-116.97"/>
<polygon fill="black" stroke="black" points="276.05,-119.73 281.12,-110.43 271.36,-114.54 276.05,-119.73"/>
<text xml:space="preserve" text-anchor="middle" x="277.27" y="-131.2" font-family="Times,serif" font-size="14.00">Falso</text>
</g>
<!-- N_FIM -->
<g id="node12" class="node">
<title>N_FIM</title>
<ellipse fill="none" stroke="black" cx="205.5" cy="-18" rx="27" ry="18"/>
<text xml:space="preserve" text-anchor="middle" x="205.5" y="-13.8" font-family="Times,serif" font-size="14.00">Fim</text>
</g>
<!-- N10&#45;&gt;N_FIM -->
<g id="edge14" class="edge">
<title>N10-&gt;N_FIM</title>
<path fill="none" stroke="black" d="M133.5,-72.81C147.28,-62.51 164.86,-49.38 179.19,-38.66"/>
<polygon fill="black" stroke="black" points="180.95,-41.72 186.86,-32.93 176.76,-36.11 180.95,-41.72"/>
</g>
<!-- N11&#45;&gt;N_FIM -->
<g id="edge15" class="edge">
<title>N11-&gt;N_FIM</title>
<path fill="none" stroke="black" d="M278.26,-72.81C264.33,-62.51 246.57,-49.38 232.09,-38.66"/>
<polygon fill="black" stroke="black" points="234.45,-36.06 224.33,-32.93 230.29,-41.69 234.45,-36.06"/>
</g>
</g>
</svg>