<svg xmlns="http://www.w3.org/2000/svg" xmlns:xlink="http://www.w3.org/1999/xlink" width="733pt" height="688pt" viewBox="0.00 0.00 733.00 688.00">
<g id="graph0" class="graph" transform="scale(1 1) rotate(0) translate(4 683.6)">
<title>calcularCustoTotal</title>
<polygon fill="white" stroke="none" points="-4,4 -4,-683.6 729.19,-683.6 729.19,4 -4,4"/>
<!-- N1 -->
<g id="node1" class="node">
<title>N1</title>
<path fill="none" stroke="black" d="M614.36,-679.6C614.36,-679.6 496.4,-679.6 496.4,-679.6 490.4,-679.6 484.4,-673.6 484.4,-667.6 484.4,-667.6 484.4,-650 484.4,-650 484.4,-644 490.4,-638 496.4,-638 496.4,-638 614.36,-638 614.36,-638 620.36,-638 626.36,-644 626.36,-650 626.36,-650 626.36,-667.6 626.36,-667.6 626.36,-673.6 620.36,-679.6 614.36,-679.6"/>
<text xml:space="preserve" text-anchor="middle" x="555.38" y="-663" font-family="Times,serif" font-size="14.00">Início</text>
<text xml:space="preserve" text-anchor="middle" x="555.38" y="-646.2" font-family="Times,serif" font-size="14.00">(Validações de Nulos)</text>
</g>
<!-- N2 -->
<g id="node2" class="node">
<title>N2</title>
<path fill="none" stroke="black" d="M595.79,-601C595.79,-601 354.97,-601 354.97,-601 348.97,-601 342.97,-595 342.97,-589 342.97,-589 342.97,-577 342.97,-577 342.97,-571 348.97,-565 354.97,-565 354.97,-565 595.79,-565 595.79,-565 601.79,-565 607.79,-571 607.79,-577 607.79,-577 607.79,-589 607.79,-589 607.79,-595 601.79,-601 595.79,-601"/>
<text xml:space="preserve" text-anchor="middle" x="475.38" y="-578.8" font-family="Times,serif" font-size="14.00">if (carrinho.getItens() == null || ...isEmpty())</text>
</g>
<!-- N1&#45;&gt;N2 -->
<g id="edge1" class="edge">
<title>N1-&gt;N2</title>
<path fill="none" stroke="black" d="M533.52,-637.63C524,-628.85 512.75,-618.47 502.69,-609.19"/>
<polygon fill="black" stroke="black" points="505.06,-606.62 495.34,-602.41 500.32,-611.76 505.06,-606.62"/>
</g>
<!-- N_EX -->
<g id="node11" class="node">
<title>N_EX</title>
<ellipse fill="none" stroke="black" cx="506.38" cy="-397" rx="77.27" ry="18"/>
<text xml:space="preserve" text-anchor="middle" x="506.38" y="-392.8" font-family="Times,serif" font-size="14.00">Saída (Exceção)</text>
</g>
<!-- N1&#45;&gt;N_EX -->
<g id="edge11" class="edge">
<title>N1-&gt;N_EX</title>
<path fill="none" stroke="black" stroke-dasharray="1,5" d="M586.07,-637.69C597.87,-628.13 610.03,-615.6 616.38,-601 639.51,-547.86 643.85,-521.63 616.38,-470.6 603.59,-446.84 579.24,-429.56 556.69,-417.84"/>
<polygon fill="black" stroke="black" points="558.39,-414.77 547.87,-413.5 555.3,-421.05 558.39,-414.77"/>
<text xml:space="preserve" text-anchor="middle" x="680.29" y="-534.4" font-family="Times,serif" font-size="14.00">Exceção (Nulo)</text>
</g>
<!-- N3 -->
<g id="node3" class="node">
<title>N3</title>
<path fill="none" stroke="black" d="M595.43,-509.4C595.43,-509.4 371.33,-509.4 371.33,-509.4 365.33,-509.4 359.33,-503.4 359.33,-497.4 359.33,-497.4 359.33,-485.4 359.33,-485.4 359.33,-479.4 365.33,-473.4 371.33,-473.4 371.33,-473.4 595.43,-473.4 595.43,-473.4 601.43,-473.4 607.43,-479.4 607.43,-485.4 607.43,-485.4 607.43,-497.4 607.43,-497.4 607.43,-503.4 601.43,-509.4 595.43,-509.4"/>
<text xml:space="preserve" text-anchor="middle" x="483.38" y="-487.2" font-family="Times,serif" font-size="14.00">throw new IllegalArgumentException(...)</text>
</g>
<!-- N2&#45;&gt;N3 -->
<g id="edge2" class="edge">
<title>N2-&gt;N3</title>
<path fill="none" stroke="black" d="M476.92,-564.72C478.03,-552.33 479.55,-535.34 480.83,-520.95"/>
<polygon fill="black" stroke="black" points="484.31,-521.4 481.71,-511.13 477.33,-520.78 484.31,-521.4"/>
<text xml:space="preserve" text-anchor="middle" x="511.34" y="-534.4" font-family="Times,serif" font-size="14.00">Verdadeiro</text>
</g>
<!-- N4 -->
<g id="node4" class="node">
<title>N4</title>
<path fill="none" stroke="black" d="M329.41,-512.2C329.41,-512.2 215.36,-512.2 215.36,-512.2 209.36,-512.2 203.36,-506.2 203.36,-500.2 203.36,-500.2 203.36,-482.6 203.36,-482.6 203.36,-476.6 209.36,-470.6 215.36,-470.6 215.36,-470.6 329.41,-470.6 329.41,-470.6 335.41,-470.6 341.41,-476.6 341.41,-482.6 341.41,-482.6 341.41,-500.2 341.41,-500.2 341.41,-506.2 335.41,-512.2 329.41,-512.2"/>
<text xml:space="preserve" text-anchor="middle" x="272.38" y="-495.6" font-family="Times,serif" font-size="14.00">validarItens(carrinho)</text>
<text xml:space="preserve" text-anchor="middle" x="272.38" y="-478.8" font-family="Times,serif" font-size="14.00">(Sub-grafo)</text>
</g>
<!-- N2&#45;&gt;N4 -->
<g id="edge3" class="edge">
<title>N2-&gt;N4</title>
<path fill="none" stroke="black" d="M435.76,-564.51C405.22,-551.03 362.61,-532.23 328.56,-517.2"/>
<polygon fill="black" stroke="black" points="330.24,-514.11 319.67,-513.27 327.41,-520.51 330.24,-514.11"/>
<text xml:space="preserve" text-anchor="middle" x="407.23" y="-534.4" font-family="Times,serif" font-size="14.00">Falso</text>
</g>
<!-- N3&#45;&gt;N_EX -->
<g id="edge4" class="edge">
<title>N3-&gt;N_EX</title>
<path fill="none" stroke="black" d="M487.71,-473.02C490.98,-459.86 495.55,-441.49 499.35,-426.23"/>
<polygon fill="black" stroke="black" points="502.69,-427.32 501.71,-416.77 495.9,-425.63 502.69,-427.32"/>
</g>
<!-- N5 -->
<g id="node5" class="node">
<title>N5</title>
<path fill="none" stroke="black" d="M398.76,-417.8C398.76,-417.8 12,-417.8 12,-417.8 6,-417.8 0,-411.8 0,-405.8 0,-405.8 0,-388.2 0,-388.2 0,-382.2 6,-376.2 12,-376.2 12,-376.2 398.76,-376.2 398.76,-376.2 404.76,-376.2 410.76,-382.2 410.76,-388.2 410.76,-388.2 410.76,-405.8 410.76,-405.8 410.76,-411.8 404.76,-417.8 398.76,-417.8"/>
<text xml:space="preserve" text-anchor="middle" x="205.38" y="-401.2" font-family="Times,serif" font-size="14.00">subtotalDescontoPorItem = calcularSubtotalComDescontoPorItens(...)</text>
<text xml:space="preserve" text-anchor="middle" x="205.38" y="-384.4" font-family="Times,serif" font-size="14.00">(Sub-grafo)</text>
</g>
<!-- N4&#45;&gt;N5 -->
<g id="edge5" class="edge">
<title>N4-&gt;N5</title>
<path fill="none" stroke="black" d="M257.84,-470.35C248.71,-457.76 236.78,-441.3 226.6,-427.26"/>
<polygon fill="black" stroke="black" points="229.48,-425.28 220.78,-419.24 223.82,-429.39 229.48,-425.28"/>
</g>
<!-- N4&#45;&gt;N_EX -->
<g id="edge12" class="edge">
<title>N4-&gt;N_EX</title>
<path fill="none" stroke="black" stroke-dasharray="1,5" d="M296.37,-470.18C311.2,-458.6 331.1,-444.66 350.75,-435.8 355.19,-433.8 401.42,-422.66 442.34,-412.99"/>
<polygon fill="black" stroke="black" points="443.03,-416.42 451.96,-410.72 441.42,-409.61 443.03,-416.42"/>
<text xml:space="preserve" text-anchor="middle" x="419.57" y="-440" font-family="Times,serif" font-size="14.00">Exceção (Item inválido)</text>
</g>
<!-- N6 -->
<g id="node6" class="node">
<title>N6</title>
<path fill="none" stroke="black" d="M352.1,-339.2C352.1,-339.2 58.66,-339.2 58.66,-339.2 52.66,-339.2 46.66,-333.2 46.66,-327.2 46.66,-327.2 46.66,-309.6 46.66,-309.6 46.66,-303.6 52.66,-297.6 58.66,-297.6 58.66,-297.6 352.1,-297.6 352.1,-297.6 358.1,-297.6 364.1,-303.6 364.1,-309.6 364.1,-309.6 364.1,-327.2 364.1,-327.2 364.1,-333.2 358.1,-339.2 352.1,-339.2"/>
<text xml:space="preserve" text-anchor="middle" x="205.38" y="-322.6" font-family="Times,serif" font-size="14.00">subtotalComDesconto = aplicarDescontoPorValor(...)</text>
<text xml:space="preserve" text-anchor="middle" x="205.38" y="-305.8" font-family="Times,serif" font-size="14.00">(Sub-grafo)</text>
</g>
<!-- N5&#45;&gt;N6 -->
<g id="edge6" class="edge">
<title>N5-&gt;N6</title>
<path fill="none" stroke="black" d="M205.38,-375.87C205.38,-368.28 205.38,-359.45 205.38,-351.06"/>
<polygon fill="black" stroke="black" points="208.88,-351.17 205.38,-341.17 201.88,-351.17 208.88,-351.17"/>
</g>
<!-- N7 -->
<g id="node7" class="node">
<title>N7</title>
<path fill="none" stroke="black" d="M282.48,-260.6C282.48,-260.6 128.28,-260.6 128.28,-260.6 122.28,-260.6 116.28,-254.6 116.28,-248.6 116.28,-248.6 116.28,-231 116.28,-231 116.28,-225 122.28,-219 128.28,-219 128.28,-219 282.48,-219 282.48,-219 288.48,-219 294.48,-225 294.48,-231 294.48,-231 294.48,-248.6 294.48,-248.6 294.48,-254.6 288.48,-260.6 282.48,-260.6"/>
<text xml:space="preserve" text-anchor="middle" x="205.38" y="-244" font-family="Times,serif" font-size="14.00">freteFinal = calcularFrete(...)</text>
<text xml:space="preserve" text-anchor="middle" x="205.38" y="-227.2" font-family="Times,serif" font-size="14.00">(Sub-grafo)</text>
</g>
<!-- N6&#45;&gt;N7 -->
<g id="edge7" class="edge">
<title>N6-&gt;N7</title>
<path fill="none" stroke="black" d="M205.38,-297.27C205.38,-289.68 205.38,-280.85 205.38,-272.46"/>
<polygon fill="black" stroke="black" points="208.88,-272.57 205.38,-262.57 201.88,-272.57 208.88,-272.57"/>
</g>
<!-- N8 -->
<g id="node8" class="node">
<title>N8</title>
<path fill="none" stroke="black" d="M327.22,-182C327.22,-182 83.54,-182 83.54,-182 77.54,-182 71.54,-176 71.54,-170 71.54,-170 71.54,-158 71.54,-158 71.54,-152 77.54,-146 83.54,-146 83.54,-146 327.22,-146 327.22,-146 333.22,-146 339.22,-152 339.22,-158 339.22,-158 339.22,-170 339.22,-170 339.22,-176 333.22,-182 327.22,-182"/>
<text xml:space="preserve" text-anchor="middle" x="205.38" y="-159.8" font-family="Times,serif" font-size="14.00">total = subtotalComDesconto.add(freteFinal)</text>
</g>
<!-- N7&#45;&gt;N8 -->
<g id="edge8" class="edge">
<title>N7-&gt;N8</title>
<path fill="none" stroke="black" d="M205.38,-218.63C205.38,-210.86 205.38,-201.83 205.38,-193.42"/>
<polygon fill="black" stroke="black" points="208.88,-193.65 205.38,-183.65 201.88,-193.65 208.88,-193.65"/>
</g>
<!-- N9 -->
<g id="node9" class="node">
<title>N9</title>
<path fill="none" stroke="black" d="M266.88,-109C266.88,-109 143.88,-109 143.88,-109 137.88,-109 131.88,-103 131.88,-97 131.88,-97 131.88,-85 131.88,-85 131.88,-79 137.88,-73 143.88,-73 143.88,-73 266.88,-73 266.88,-73 272.88,-73 278.88,-79 278.88,-85 278.88,-85 278.88,-97 278.88,-97 278.88,-103 272.88,-109 266.88,-109"/>
<text xml:space="preserve" text-anchor="middle" x="205.38" y="-86.8" font-family="Times,serif" font-size="14.00">return total.setScale(...)</text>
</g>
<!-- N8&#45;&gt;N9 -->
<g id="edge9" class="edge">
<title>N8-&gt;N9</title>
<path fill="none" stroke="black" d="M205.38,-145.81C205.38,-138.23 205.38,-129.1 205.38,-120.54"/>
<polygon fill="black" stroke="black" points="208.88,-120.54 205.38,-110.54 201.88,-120.54 208.88,-120.54"/>
</g>
<!-- N_FIM -->
<g id="node10" class="node">
<title>N_FIM</title>
<ellipse fill="none" stroke="black" cx="205.38" cy="-18" rx="27" ry="18"/>
<text xml:space="preserve" text-anchor="middle" x="205.38" y="-13.8" font-family="Times,serif" font-size="14.00">Fim</text>
</g>
<!-- N9&#45;&gt;N_FIM -->
<g id="edge10" class="edge">
<title>N9-&gt;N_FIM</title>
<path fill="none" stroke="black" d="M205.38,-72.81C205.38,-65.23 205.38,-56.1 205.38,-47.54"/>
<polygon fill="black" stroke="black" points="208.88,-47.54 205.38,-37.54 201.88,-47.54 208.88,-47.54"/>
</g>
</g>
</svg>