<svg xmlns="http://www.w3.org/2000/svg" xmlns:xlink="http://www.w3.org/1999/xlink" width="672pt" height="692pt" viewBox="0.00 0.00 672.00 692.00">
<g id="graph0" class="graph" transform="scale(1 1) rotate(0) translate(4 687.6)">
<title>validarItens</title>
<polygon fill="white" stroke="none" points="-4,4 -4,-687.6 667.65,-687.6 667.65,4 -4,4"/>
<!-- N1 -->
<g id="node1" class="node">
<title>N1</title>
<path fill="none" stroke="black" d="M510.28,-683.6C510.28,-683.6 409.04,-683.6 409.04,-683.6 403.04,-683.6 397.04,-677.6 397.04,-671.6 397.04,-671.6 397.04,-659.6 397.04,-659.6 397.04,-653.6 403.04,-647.6 409.04,-647.6 409.04,-647.6 510.28,-647.6 510.28,-647.6 516.28,-647.6 522.28,-653.6 522.28,-659.6 522.28,-659.6 522.28,-671.6 522.28,-671.6 522.28,-677.6 516.28,-683.6 510.28,-683.6"/>
<text xml:space="preserve" text-anchor="middle" x="459.66" y="-661.4" font-family="Times,serif" font-size="14.00">Início: validarItens</text>
</g>
<!-- N2 -->
<g id="node2" class="node">
<title>N2</title>
<path fill="none" stroke="black" d="M577.14,-610.6C577.14,-610.6 342.18,-610.6 342.18,-610.6 336.18,-610.6 330.18,-604.6 330.18,-598.6 330.18,-598.6 330.18,-586.6 330.18,-586.6 330.18,-580.6 336.18,-574.6 342.18,-574.6 342.18,-574.6 577.14,-574.6 577.14,-574.6 583.14,-574.6 589.14,-580.6 589.14,-586.6 589.14,-586.6 589.14,-598.6 589.14,-598.6 589.14,-604.6 583.14,-610.6 577.14,-610.6"/>
<text xml:space="preserve" text-anchor="middle" x="459.66" y="-588.4" font-family="Times,serif" font-size="14.00">for (ItemCompra item : carrinho.getItens())</text>
</g>
<!-- N1&#45;&gt;N2 -->
<g id="edge1" class="edge">
<title>N1-&gt;N2</title>
<path fill="none" stroke="black" d="M459.66,-647.41C459.66,-639.83 459.66,-630.7 459.66,-622.14"/>
<polygon fill="black" stroke="black" points="463.16,-622.14 459.66,-612.14 456.16,-622.14 463.16,-622.14"/>
</g>
<!-- N3 -->
<g id="node3" class="node">
<title>N3</title>
<path fill="none" stroke="black" d="M339.92,-521.8C339.92,-521.8 177.41,-521.8 177.41,-521.8 171.41,-521.8 165.41,-515.8 165.41,-509.8 165.41,-509.8 165.41,-497.8 165.41,-497.8 165.41,-491.8 171.41,-485.8 177.41,-485.8 177.41,-485.8 339.92,-485.8 339.92,-485.8 345.92,-485.8 351.92,-491.8 351.92,-497.8 351.92,-497.8 351.92,-509.8 351.92,-509.8 351.92,-515.8 345.92,-521.8 339.92,-521.8"/>
<text xml:space="preserve" text-anchor="middle" x="258.66" y="-499.6" font-family="Times,serif" font-size="14.00">if (item.getQuantidade() &lt;= 0)</text>
</g>
<!-- N2&#45;&gt;N3 -->
<g id="edge3" class="edge">
<title>N2-&gt;N3</title>
<path fill="none" stroke="black" d="M419.47,-574.24C387.8,-560.57 343.46,-541.42 309.36,-526.69"/>
<polygon fill="black" stroke="black" points="311.08,-523.63 300.52,-522.88 308.31,-530.05 311.08,-523.63"/>
<text xml:space="preserve" text-anchor="middle" x="415.47" y="-544" font-family="Times,serif" font-size="14.00">Próximo item</text>
</g>
<!-- N11 -->
<g id="node11" class="node">
<title>N11</title>
<path fill="none" stroke="black" d="M492.22,-521.8C492.22,-521.8 427.1,-521.8 427.1,-521.8 421.1,-521.8 415.1,-515.8 415.1,-509.8 415.1,-509.8 415.1,-497.8 415.1,-497.8 415.1,-491.8 421.1,-485.8 427.1,-485.8 427.1,-485.8 492.22,-485.8 492.22,-485.8 498.22,-485.8 504.22,-491.8 504.22,-497.8 504.22,-497.8 504.22,-509.8 504.22,-509.8 504.22,-515.8 498.22,-521.8 492.22,-521.8"/>
<text xml:space="preserve" text-anchor="middle" x="459.66" y="-499.6" font-family="Times,serif" font-size="14.00">Fim do Loop</text>
</g>
<!-- N2&#45;&gt;N11 -->
<g id="edge2" class="edge">
<title>N2-&gt;N11</title>
<path fill="none" stroke="black" d="M459.66,-574.45C459.66,-562.76 459.66,-546.99 459.66,-533.42"/>
<polygon fill="black" stroke="black" points="463.16,-533.72 459.66,-523.72 456.16,-533.72 463.16,-533.72"/>
<text xml:space="preserve" text-anchor="middle" x="493.89" y="-544" font-family="Times,serif" font-size="14.00">Fim do loop</text>
</g>
<!-- N4 -->
<g id="node4" class="node">
<title>N4</title>
<path fill="none" stroke="black" d="M207.32,-379C207.32,-379 12,-379 12,-379 6,-379 0,-373 0,-367 0,-367 0,-355 0,-355 0,-349 6,-343 12,-343 12,-343 207.32,-343 207.32,-343 213.32,-343 219.32,-349 219.32,-355 219.32,-355 219.32,-367 219.32,-367 219.32,-373 213.32,-379 207.32,-379"/>
<text xml:space="preserve" text-anchor="middle" x="109.66" y="-356.8" font-family="Times,serif" font-size="14.00">throw 'Quantidade deve ser positiva'</text>
</g>
<!-- N3&#45;&gt;N4 -->
<g id="edge4" class="edge">
<title>N3-&gt;N4</title>
<path fill="none" stroke="black" d="M191.05,-485.39C163.56,-474.81 134.19,-458.29 116.66,-433 108.26,-420.87 106.16,-404.66 106.32,-390.79"/>
<polygon fill="black" stroke="black" points="109.81,-391.05 106.85,-380.88 102.82,-390.67 109.81,-391.05"/>
<text xml:space="preserve" text-anchor="middle" x="185.93" y="-455.2" font-family="Times,serif" font-size="14.00">Verdadeiro</text>
</g>
<!-- N5 -->
<g id="node5" class="node">
<title>N5</title>
<path fill="none" stroke="black" d="M380.1,-433C380.1,-433 137.22,-433 137.22,-433 131.22,-433 125.22,-427 125.22,-421 125.22,-421 125.22,-409 125.22,-409 125.22,-403 131.22,-397 137.22,-397 137.22,-397 380.1,-397 380.1,-397 386.1,-397 392.1,-403 392.1,-409 392.1,-409 392.1,-421 392.1,-421 392.1,-427 386.1,-433 380.1,-433"/>
<text xml:space="preserve" text-anchor="middle" x="258.66" y="-410.8" font-family="Times,serif" font-size="14.00">if (item.getProduto().getPrecoUnitario() &lt; 0)</text>
</g>
<!-- N3&#45;&gt;N5 -->
<g id="edge5" class="edge">
<title>N3-&gt;N5</title>
<path fill="none" stroke="black" d="M258.66,-485.65C258.66,-473.96 258.66,-458.19 258.66,-444.62"/>
<polygon fill="black" stroke="black" points="262.16,-444.92 258.66,-434.92 255.16,-444.92 262.16,-444.92"/>
<text xml:space="preserve" text-anchor="middle" x="273.83" y="-455.2" font-family="Times,serif" font-size="14.00">Falso</text>
</g>
<!-- N_EX -->
<g id="node13" class="node">
<title>N_EX</title>
<ellipse fill="none" stroke="black" cx="284.66" cy="-18" rx="77.27" ry="18"/>
<text xml:space="preserve" text-anchor="middle" x="284.66" y="-13.8" font-family="Times,serif" font-size="14.00">Saída (Exceção)</text>
</g>
<!-- N4&#45;&gt;N_EX -->
<g id="edge13" class="edge">
<title>N4-&gt;N_EX</title>
<path fill="none" stroke="black" d="M111.76,-342.77C114.13,-321.82 117.66,-285.37 117.66,-254 117.66,-254 117.66,-254 117.66,-90 117.66,-50.46 157.79,-32.63 198.71,-24.72"/>
<polygon fill="black" stroke="black" points="199.2,-28.18 208.46,-23.04 198.01,-21.29 199.2,-28.18"/>
</g>
<!-- N6 -->
<g id="node6" class="node">
<title>N6</title>
<path fill="none" stroke="black" d="M343.97,-271C343.97,-271 151.35,-271 151.35,-271 145.35,-271 139.35,-265 139.35,-259 139.35,-259 139.35,-247 139.35,-247 139.35,-241 145.35,-235 151.35,-235 151.35,-235 343.97,-235 343.97,-235 349.97,-235 355.97,-241 355.97,-247 355.97,-247 355.97,-259 355.97,-259 355.97,-265 349.97,-271 343.97,-271"/>
<text xml:space="preserve" text-anchor="middle" x="247.66" y="-248.8" font-family="Times,serif" font-size="14.00">throw 'Preço não pode ser negativo'</text>
</g>
<!-- N5&#45;&gt;N6 -->
<g id="edge6" class="edge">
<title>N5-&gt;N6</title>
<path fill="none" stroke="black" d="M252.75,-396.75C251.11,-391.16 249.54,-384.88 248.69,-379 243.97,-346.14 244.52,-307.92 245.73,-282.48"/>
<polygon fill="black" stroke="black" points="249.22,-282.78 246.28,-272.6 242.23,-282.4 249.22,-282.78"/>
<text xml:space="preserve" text-anchor="middle" x="280.18" y="-356.8" font-family="Times,serif" font-size="14.00">Verdadeiro</text>
</g>
<!-- N7 -->
<g id="node7" class="node">
<title>N7</title>
<path fill="none" stroke="black" d="M467.32,-325C467.32,-325 290,-325 290,-325 284,-325 278,-319 278,-313 278,-313 278,-301 278,-301 278,-295 284,-289 290,-289 290,-289 467.32,-289 467.32,-289 473.32,-289 479.32,-295 479.32,-301 479.32,-301 479.32,-313 479.32,-313 479.32,-319 473.32,-325 467.32,-325"/>
<text xml:space="preserve" text-anchor="middle" x="378.66" y="-302.8" font-family="Times,serif" font-size="14.00">if (produto.getPesoFisico() &lt;= 0)</text>
</g>
<!-- N5&#45;&gt;N7 -->
<g id="edge7" class="edge">
<title>N5-&gt;N7</title>
<path fill="none" stroke="black" d="M290.86,-396.5C299.27,-391.33 308.1,-385.34 315.66,-379 331.51,-365.71 346.96,-348.39 358.59,-334.18"/>
<polygon fill="black" stroke="black" points="361.19,-336.54 364.71,-326.55 355.72,-332.16 361.19,-336.54"/>
<text xml:space="preserve" text-anchor="middle" x="365.37" y="-356.8" font-family="Times,serif" font-size="14.00">Falso</text>
</g>
<!-- N6&#45;&gt;N_EX -->
<g id="edge14" class="edge">
<title>N6-&gt;N_EX</title>
<path fill="none" stroke="black" d="M249.07,-234.54C251.15,-210.3 255.48,-165.15 261.66,-127 266.09,-99.7 272.83,-68.86 277.87,-47.15"/>
<polygon fill="black" stroke="black" points="281.24,-48.12 280.13,-37.58 274.43,-46.51 281.24,-48.12"/>
</g>
<!-- N8 -->
<g id="node8" class="node">
<title>N8</title>
<path fill="none" stroke="black" d="M470.53,-163C470.53,-163 274.79,-163 274.79,-163 268.79,-163 262.79,-157 262.79,-151 262.79,-151 262.79,-139 262.79,-139 262.79,-133 268.79,-127 274.79,-127 274.79,-127 470.53,-127 470.53,-127 476.53,-127 482.53,-133 482.53,-139 482.53,-139 482.53,-151 482.53,-151 482.53,-157 476.53,-163 470.53,-163"/>
<text xml:space="preserve" text-anchor="middle" x="372.66" y="-140.8" font-family="Times,serif" font-size="14.00">throw 'Peso físico deve ser positivo'</text>
</g>
<!-- N7&#45;&gt;N8 -->
<g id="edge8" class="edge">
<title>N7-&gt;N8</title>
<path fill="none" stroke="black" d="M378.01,-288.57C376.98,-261.16 374.97,-207.69 373.73,-174.59"/>
<polygon fill="black" stroke="black" points="377.24,-174.78 373.37,-164.92 370.25,-175.04 377.24,-174.78"/>
<text xml:space="preserve" text-anchor="middle" x="408.74" y="-248.8" font-family="Times,serif" font-size="14.00">Verdadeiro</text>
</g>
<!-- N9 -->
<g id="node9" class="node">
<title>N9</title>
<path fill="none" stroke="black" d="M579.9,-217C579.9,-217 431.42,-217 431.42,-217 425.42,-217 419.42,-211 419.42,-205 419.42,-205 419.42,-193 419.42,-193 419.42,-187 425.42,-181 431.42,-181 431.42,-181 579.9,-181 579.9,-181 585.9,-181 591.9,-187 591.9,-193 591.9,-193 591.9,-205 591.9,-205 591.9,-211 585.9,-217 579.9,-217"/>
<text xml:space="preserve" text-anchor="middle" x="505.66" y="-194.8" font-family="Times,serif" font-size="14.00">if (dimensões &lt;= 0 || ... || ...)</text>
</g>
<!-- N7&#45;&gt;N9 -->
<g id="edge9" class="edge">
<title>N7-&gt;N9</title>
<path fill="none" stroke="black" d="M418.15,-288.61C427.61,-283.59 437.36,-277.65 445.66,-271 461.57,-258.26 476.39,-240.8 487.32,-226.39"/>
<polygon fill="black" stroke="black" points="489.91,-228.78 493.02,-218.65 484.27,-224.63 489.91,-228.78"/>
<text xml:space="preserve" text-anchor="middle" x="494.37" y="-248.8" font-family="Times,serif" font-size="14.00">Falso</text>
</g>
<!-- N8&#45;&gt;N_EX -->
<g id="edge15" class="edge">
<title>N8-&gt;N_EX</title>
<path fill="none" stroke="black" d="M360.42,-126.62C345.65,-105.63 320.64,-70.1 303.42,-45.64"/>
<polygon fill="black" stroke="black" points="306.28,-43.63 297.66,-37.47 300.56,-47.66 306.28,-43.63"/>
</g>
<!-- N9&#45;&gt;N2 -->
<g id="edge11" class="edge">
<title>N9-&gt;N2</title>
<path fill="none" stroke="black" d="M516.32,-217.29C527.86,-237.7 544.66,-273.06 544.66,-306 544.66,-504.8 544.66,-504.8 544.66,-504.8 544.66,-528.65 545.81,-538.18 530.66,-556.6 527.19,-560.82 523.08,-564.58 518.62,-567.91"/>
<polygon fill="black" stroke="black" points="516.77,-564.93 510.32,-573.34 520.6,-570.79 516.77,-564.93"/>
<text xml:space="preserve" text-anchor="middle" x="604.16" y="-410.8" font-family="Times,serif" font-size="14.00">Falso (próximo loop)</text>
</g>
<!-- N10 -->
<g id="node10" class="node">
<title>N10</title>
<path fill="none" stroke="black" d="M591.33,-109C591.33,-109 381.99,-109 381.99,-109 375.99,-109 369.99,-103 369.99,-97 369.99,-97 369.99,-85 369.99,-85 369.99,-79 375.99,-73 381.99,-73 381.99,-73 591.33,-73 591.33,-73 597.33,-73 603.33,-79 603.33,-85 603.33,-85 603.33,-97 603.33,-97 603.33,-103 597.33,-109 591.33,-109"/>
<text xml:space="preserve" text-anchor="middle" x="486.66" y="-86.8" font-family="Times,serif" font-size="14.00">throw 'Dimensões devem ser positivas'</text>
</g>
<!-- N9&#45;&gt;N10 -->
<g id="edge10" class="edge">
<title>N9-&gt;N10</title>
<path fill="none" stroke="black" d="M502.61,-180.97C499.69,-164.69 495.23,-139.82 491.77,-120.52"/>
<polygon fill="black" stroke="black" points="495.25,-120.06 490.04,-110.83 488.36,-121.29 495.25,-120.06"/>
<text xml:space="preserve" text-anchor="middle" x="530.46" y="-140.8" font-family="Times,serif" font-size="14.00">Verdadeiro</text>
</g>
<!-- N10&#45;&gt;N_EX -->
<g id="edge16" class="edge">
<title>N10-&gt;N_EX</title>
<path fill="none" stroke="black" d="M436.99,-72.54C406.47,-61.82 367.45,-48.1 336.54,-37.23"/>
<polygon fill="black" stroke="black" points="337.99,-34.04 327.4,-34.02 335.67,-40.64 337.99,-34.04"/>
</g>
<!-- N_FIM -->
<g id="node12" class="node">
<title>N_FIM</title>
<ellipse fill="none" stroke="black" cx="459.66" cy="-415" rx="49.4" ry="18"/>
<text xml:space="preserve" text-anchor="middle" x="459.66" y="-410.8" font-family="Times,serif" font-size="14.00">Fim (OK)</text>
</g>
<!-- N11&#45;&gt;N_FIM -->
<g id="edge12" class="edge">
<title>N11-&gt;N_FIM</title>
<path fill="none" stroke="black" d="M459.66,-485.65C459.66,-473.96 459.66,-458.19 459.66,-444.62"/>
<polygon fill="black" stroke="black" points="463.16,-444.92 459.66,-434.92 456.16,-444.92 463.16,-444.92"/>
</g>
</g>
</svg>